<svg width="384" height="384" xmlns="http://www.w3.org/2000/svg" shape-rendering="crispEdges"><path fill="#2C3E49" d="M260 232h4v4h-4zM264 232h4v4h-4zM268 232h4v4h-4zM272 232h4v4h-4zM144 236h4v4h-4zM148 236h4v4h-4zM152 236h4v4h-4zM156 236h4v4h-4zM160 236h4v4h-4zM164 236h4v4h-4zM168 236h4v4h-4zM172 236h4v4h-4zM176 236h4v4h-4zM256 236h4v4h-4zM260 236h4v4h-4zM264 236h4v4h-4zM268 236h4v4h-4zM272 236h4v4h-4zM276 236h4v4h-4zM140 240h4v4h-4zM144 240h4v4h-4zM148 240h4v4h-4zM164 240h4v4h-4zM168 240h4v4h-4zM172 240h4v4h-4zM176 240h4v4h-4zM180 240h4v4h-4zM252 240h4v4h-4zM256 240h4v4h-4zM260 240h4v4h-4zM272 240h4v4h-4zM276 240h4v4h-4zM280 240h4v4h-4zM136 244h4v4h-4zM140 244h4v4h-4zM144 244h4v4h-4zM176 244h4v4h-4zM180 244h4v4h-4zM184 244h4v4h-4zM252 244h4v4h-4zM256 244h4v4h-4zM276 244h4v4h-4zM280 244h4v4h-4zM136 248h4v4h-4zM140 248h4v4h-4zM180 248h4v4h-4zM184 248h4v4h-4zM188 248h4v4h-4zM252 248h4v4h-4zM256 248h4v4h-4zM276 248h4v4h-4zM280 248h4v4h-4zM284 248h4v4h-4zM288 248h4v4h-4zM136 252h4v4h-4zM140 252h4v4h-4zM172 252h4v4h-4zM176 252h4v4h-4zM180 252h4v4h-4zM184 252h4v4h-4zM188 252h4v4h-4zM252 252h4v4h-4zM256 252h4v4h-4zM260 252h4v4h-4zM264 252h4v4h-4zM268 252h4v4h-4zM276 252h4v4h-4zM280 252h4v4h-4zM284 252h4v4h-4zM288 252h4v4h-4zM136 256h4v4h-4zM140 256h4v4h-4zM144 256h4v4h-4zM148 256h4v4h-4zM152 256h4v4h-4zM160 256h4v4h-4zM164 256h4v4h-4zM168 256h4v4h-4z"/><path fill="#427384" d="M172 256h4v4h-4zM176 256h4v4h-4zM180 256h4v4h-4z"/><path fill="#2C3E49" d="M184 256h4v4h-4zM188 256h4v4h-4zM252 256h4v4h-4zM256 256h4v4h-4z"/><path fill="#427384" d="M260 256h4v4h-4zM264 256h4v4h-4zM268 256h4v4h-4z"/><path fill="#2C3E49" d="M272 256h4v4h-4zM276 256h4v4h-4zM280 256h4v4h-4zM284 256h4v4h-4zM288 256h4v4h-4zM292 256h4v4h-4zM136 260h4v4h-4zM140 260h4v4h-4zM144 260h4v4h-4zM148 260h4v4h-4zM152 260h4v4h-4zM156 260h4v4h-4z"/><path fill="#427384" d="M160 260h4v4h-4zM164 260h4v4h-4zM168 260h4v4h-4zM172 260h4v4h-4zM176 260h4v4h-4zM180 260h4v4h-4zM184 260h4v4h-4zM188 260h4v4h-4zM192 260h4v4h-4zM196 260h4v4h-4z"/><path fill="#2C3E49" d="M200 260h4v4h-4zM252 260h4v4h-4z"/><path fill="#427384" d="M256 260h4v4h-4zM260 260h4v4h-4zM264 260h4v4h-4zM268 260h4v4h-4zM272 260h4v4h-4z"/><path fill="#2C3E49" d="M276 260h4v4h-4zM280 260h4v4h-4zM284 260h4v4h-4zM288 260h4v4h-4zM292 260h4v4h-4zM296 260h4v4h-4zM132 264h4v4h-4zM136 264h4v4h-4zM140 264h4v4h-4zM152 264h4v4h-4zM156 264h4v4h-4z"/><path fill="#427384" d="M160 264h4v4h-4zM164 264h4v4h-4zM168 264h4v4h-4zM172 264h4v4h-4zM176 264h4v4h-4z"/><path fill="#3F90AC" d="M180 264h4v4h-4z"/><path fill="#427384" d="M184 264h4v4h-4zM188 264h4v4h-4zM192 264h4v4h-4zM196 264h4v4h-4z"/><path fill="#418EAA" d="M200 264h4v4h-4z"/><path fill="#2C3E49" d="M204 264h4v4h-4zM248 264h4v4h-4z"/><path fill="#427384" d="M252 264h4v4h-4zM256 264h4v4h-4zM260 264h4v4h-4z"/><path fill="#3F90AC" d="M264 264h4v4h-4zM268 264h4v4h-4z"/><path fill="#427384" d="M272 264h4v4h-4zM276 264h4v4h-4z"/><path fill="#FF2E88" d="M280 264h4v4h-4z"/><path fill="#2C3E49" d="M292 264h4v4h-4zM296 264h4v4h-4zM300 264h4v4h-4zM124 268h4v4h-4zM128 268h4v4h-4zM132 268h4v4h-4zM136 268h4v4h-4zM140 268h4v4h-4zM148 268h4v4h-4z"/><path fill="#427384" d="M152 268h4v4h-4zM156 268h4v4h-4zM160 268h4v4h-4zM164 268h4v4h-4zM168 268h4v4h-4zM172 268h4v4h-4zM176 268h4v4h-4z"/><path fill="#3F90AC" d="M180 268h4v4h-4zM184 268h4v4h-4zM188 268h4v4h-4z"/><path fill="#427384" d="M192 268h4v4h-4zM196 268h4v4h-4zM200 268h4v4h-4z"/><path fill="#418EAA" d="M204 268h4v4h-4z"/><path fill="#2C3E49" d="M208 268h4v4h-4zM244 268h4v4h-4z"/><path fill="#427384" d="M248 268h4v4h-4zM252 268h4v4h-4zM256 268h4v4h-4z"/><path fill="#3F90AC" d="M260 268h4v4h-4zM264 268h4v4h-4zM268 268h4v4h-4z"/><path fill="#427384" d="M272 268h4v4h-4zM276 268h4v4h-4zM280 268h4v4h-4z"/><path fill="#2C3E49" d="M284 268h4v4h-4zM288 268h4v4h-4zM296 268h4v4h-4zM300 268h4v4h-4zM304 268h4v4h-4zM308 268h4v4h-4zM124 272h4v4h-4zM128 272h4v4h-4zM132 272h4v4h-4zM136 272h4v4h-4zM140 272h4v4h-4zM144 272h4v4h-4z"/><path fill="#427384" d="M148 272h4v4h-4zM152 272h4v4h-4zM156 272h4v4h-4z"/><path fill="#FF2E88" d="M160 272h4v4h-4zM164 272h4v4h-4zM168 272h4v4h-4z"/><path fill="#427384" d="M172 272h4v4h-4zM176 272h4v4h-4zM180 272h4v4h-4z"/><path fill="#3F90AC" d="M184 272h4v4h-4zM188 272h4v4h-4zM192 272h4v4h-4zM196 272h4v4h-4z"/><path fill="#427384" d="M200 272h4v4h-4zM204 272h4v4h-4z"/><path fill="#418EAA" d="M208 272h4v4h-4z"/><path fill="#2C3E49" d="M212 272h4v4h-4zM240 272h4v4h-4z"/><path fill="#294A65" d="M244 272h4v4h-4z"/><path fill="#427384" d="M248 272h4v4h-4zM252 272h4v4h-4zM256 272h4v4h-4z"/><path fill="#3F90AC" d="M260 272h4v4h-4zM264 272h4v4h-4zM268 272h4v4h-4z"/><path fill="#427384" d="M272 272h4v4h-4zM276 272h4v4h-4z"/><path fill="#FF2E88" d="M280 272h4v4h-4zM284 272h4v4h-4zM288 272h4v4h-4z"/><path fill="#2C3E49" d="M292 272h4v4h-4zM300 272h4v4h-4zM304 272h4v4h-4zM308 272h4v4h-4zM124 276h4v4h-4zM128 276h4v4h-4zM132 276h4v4h-4zM140 276h4v4h-4zM144 276h4v4h-4z"/><path fill="#427384" d="M148 276h4v4h-4zM152 276h4v4h-4zM156 276h4v4h-4zM160 276h4v4h-4zM164 276h4v4h-4zM168 276h4v4h-4zM172 276h4v4h-4zM176 276h4v4h-4zM180 276h4v4h-4z"/><path fill="#3F90AC" d="M184 276h4v4h-4zM188 276h4v4h-4zM192 276h4v4h-4zM196 276h4v4h-4z"/><path fill="#427384" d="M200 276h4v4h-4zM204 276h4v4h-4z"/><path fill="#418EAA" d="M208 276h4v4h-4z"/><path fill="#2C3E49" d="M212 276h4v4h-4zM240 276h4v4h-4z"/><path fill="#294A65" d="M244 276h4v4h-4z"/><path fill="#427384" d="M248 276h4v4h-4zM252 276h4v4h-4zM256 276h4v4h-4z"/><path fill="#3F90AC" d="M260 276h4v4h-4z"/><path fill="#427384" d="M264 276h4v4h-4zM268 276h4v4h-4zM272 276h4v4h-4zM276 276h4v4h-4zM280 276h4v4h-4zM284 276h4v4h-4zM288 276h4v4h-4z"/><path fill="#2C3E49" d="M292 276h4v4h-4zM300 276h4v4h-4zM304 276h4v4h-4zM308 276h4v4h-4zM124 280h4v4h-4zM128 280h4v4h-4zM132 280h4v4h-4zM144 280h4v4h-4z"/><path fill="#427384" d="M148 280h4v4h-4zM152 280h4v4h-4zM156 280h4v4h-4zM160 280h4v4h-4z"/><path fill="#FF2E88" d="M164 280h4v4h-4zM168 280h4v4h-4zM172 280h4v4h-4z"/><path fill="#427384" d="M176 280h4v4h-4zM180 280h4v4h-4zM184 280h4v4h-4zM188 280h4v4h-4z"/><path fill="#3F90AC" d="M192 280h4v4h-4zM196 280h4v4h-4z"/><path fill="#427384" d="M200 280h4v4h-4zM204 280h4v4h-4z"/><path fill="#418EAA" d="M208 280h4v4h-4z"/><path fill="#2C3E49" d="M212 280h4v4h-4zM240 280h4v4h-4z"/><path fill="#294A65" d="M244 280h4v4h-4z"/><path fill="#427384" d="M248 280h4v4h-4zM252 280h4v4h-4zM256 280h4v4h-4z"/><path fill="#3F90AC" d="M260 280h4v4h-4z"/><path fill="#427384" d="M264 280h4v4h-4zM268 280h4v4h-4zM272 280h4v4h-4zM276 280h4v4h-4zM280 280h4v4h-4zM284 280h4v4h-4zM288 280h4v4h-4z"/><path fill="#2C3E49" d="M292 280h4v4h-4zM300 280h4v4h-4zM304 280h4v4h-4zM308 280h4v4h-4zM124 284h4v4h-4zM128 284h4v4h-4zM132 284h4v4h-4zM144 284h4v4h-4z"/><path fill="#427384" d="M148 284h4v4h-4zM152 284h4v4h-4zM156 284h4v4h-4zM160 284h4v4h-4zM164 284h4v4h-4zM168 284h4v4h-4zM172 284h4v4h-4zM176 284h4v4h-4zM180 284h4v4h-4zM184 284h4v4h-4zM188 284h4v4h-4zM192 284h4v4h-4zM196 284h4v4h-4zM200 284h4v4h-4zM204 284h4v4h-4z"/><path fill="#418EAA" d="M208 284h4v4h-4z"/><path fill="#2C3E49" d="M212 284h4v4h-4zM240 284h4v4h-4z"/><path fill="#294A65" d="M244 284h4v4h-4zM248 284h4v4h-4z"/><path fill="#427384" d="M252 284h4v4h-4zM256 284h4v4h-4z"/><path fill="#3F90AC" d="M260 284h4v4h-4z"/><path fill="#427384" d="M264 284h4v4h-4zM268 284h4v4h-4zM272 284h4v4h-4zM276 284h4v4h-4z"/><path fill="#FF2E88" d="M280 284h4v4h-4zM284 284h4v4h-4zM288 284h4v4h-4z"/><path fill="#427384" d="M292 284h4v4h-4z"/><path fill="#2C3E49" d="M296 284h4v4h-4zM300 284h4v4h-4zM304 284h4v4h-4zM308 284h4v4h-4zM124 288h4v4h-4zM128 288h4v4h-4zM132 288h4v4h-4zM136 288h4v4h-4zM140 288h4v4h-4zM144 288h4v4h-4z"/><path fill="#427384" d="M148 288h4v4h-4zM152 288h4v4h-4zM156 288h4v4h-4zM160 288h4v4h-4zM164 288h4v4h-4zM168 288h4v4h-4z"/><path fill="#FF2E88" d="M172 288h4v4h-4zM176 288h4v4h-4z"/><path fill="#427384" d="M180 288h4v4h-4zM184 288h4v4h-4zM188 288h4v4h-4zM192 288h4v4h-4zM196 288h4v4h-4zM200 288h4v4h-4zM204 288h4v4h-4zM208 288h4v4h-4z"/><path fill="#418EAA" d="M212 288h4v4h-4z"/><path fill="#2C3E49" d="M216 288h4v4h-4zM240 288h4v4h-4z"/><path fill="#294A65" d="M244 288h4v4h-4zM248 288h4v4h-4z"/><path fill="#427384" d="M252 288h4v4h-4zM256 288h4v4h-4zM260 288h4v4h-4zM264 288h4v4h-4zM268 288h4v4h-4zM272 288h4v4h-4zM276 288h4v4h-4zM280 288h4v4h-4zM284 288h4v4h-4zM288 288h4v4h-4zM292 288h4v4h-4z"/><path fill="#2C3E49" d="M296 288h4v4h-4zM300 288h4v4h-4zM304 288h4v4h-4zM308 288h4v4h-4zM132 292h4v4h-4zM136 292h4v4h-4zM140 292h4v4h-4zM144 292h4v4h-4z"/><path fill="#427384" d="M148 292h4v4h-4zM152 292h4v4h-4zM156 292h4v4h-4zM160 292h4v4h-4zM164 292h4v4h-4zM168 292h4v4h-4zM172 292h4v4h-4zM176 292h4v4h-4zM180 292h4v4h-4zM184 292h4v4h-4zM188 292h4v4h-4zM192 292h4v4h-4zM196 292h4v4h-4zM200 292h4v4h-4zM204 292h4v4h-4zM208 292h4v4h-4z"/><path fill="#418EAA" d="M212 292h4v4h-4z"/><path fill="#2C3E49" d="M216 292h4v4h-4zM244 292h4v4h-4z"/><path fill="#294A65" d="M248 292h4v4h-4zM252 292h4v4h-4z"/><path fill="#427384" d="M256 292h4v4h-4zM260 292h4v4h-4zM264 292h4v4h-4zM268 292h4v4h-4zM272 292h4v4h-4zM276 292h4v4h-4z"/><path fill="#FF2E88" d="M280 292h4v4h-4zM284 292h4v4h-4zM288 292h4v4h-4z"/><path fill="#427384" d="M292 292h4v4h-4z"/><path fill="#2C3E49" d="M296 292h4v4h-4zM300 292h4v4h-4zM304 292h4v4h-4zM308 292h4v4h-4zM144 296h4v4h-4z"/><path fill="#294A65" d="M148 296h4v4h-4z"/><path fill="#427384" d="M152 296h4v4h-4zM156 296h4v4h-4zM160 296h4v4h-4zM164 296h4v4h-4zM168 296h4v4h-4zM172 296h4v4h-4z"/><path fill="#FF2E88" d="M176 296h4v4h-4zM180 296h4v4h-4z"/><path fill="#427384" d="M184 296h4v4h-4zM188 296h4v4h-4zM192 296h4v4h-4zM196 296h4v4h-4zM200 296h4v4h-4zM204 296h4v4h-4zM208 296h4v4h-4z"/><path fill="#418EAA" d="M212 296h4v4h-4z"/><path fill="#2C3E49" d="M216 296h4v4h-4zM244 296h4v4h-4z"/><path fill="#294A65" d="M248 296h4v4h-4zM252 296h4v4h-4z"/><path fill="#427384" d="M256 296h4v4h-4zM260 296h4v4h-4zM264 296h4v4h-4zM268 296h4v4h-4zM272 296h4v4h-4zM276 296h4v4h-4zM280 296h4v4h-4zM284 296h4v4h-4zM288 296h4v4h-4zM292 296h4v4h-4zM296 296h4v4h-4z"/><path fill="#2C3E49" d="M300 296h4v4h-4zM148 300h4v4h-4z"/><path fill="#294A65" d="M152 300h4v4h-4z"/><path fill="#427384" d="M156 300h4v4h-4zM160 300h4v4h-4zM164 300h4v4h-4zM168 300h4v4h-4zM172 300h4v4h-4zM176 300h4v4h-4zM180 300h4v4h-4zM184 300h4v4h-4zM188 300h4v4h-4zM192 300h4v4h-4zM196 300h4v4h-4zM200 300h4v4h-4zM204 300h4v4h-4zM208 300h4v4h-4z"/><path fill="#418EAA" d="M212 300h4v4h-4z"/><path fill="#2C3E49" d="M216 300h4v4h-4zM248 300h4v4h-4z"/><path fill="#294A65" d="M252 300h4v4h-4z"/><path fill="#427384" d="M256 300h4v4h-4zM260 300h4v4h-4zM264 300h4v4h-4zM268 300h4v4h-4zM272 300h4v4h-4zM276 300h4v4h-4zM280 300h4v4h-4zM284 300h4v4h-4zM288 300h4v4h-4zM292 300h4v4h-4zM296 300h4v4h-4z"/><path fill="#2C3E49" d="M300 300h4v4h-4zM148 304h4v4h-4z"/><path fill="#294A65" d="M152 304h4v4h-4zM156 304h4v4h-4z"/><path fill="#427384" d="M160 304h4v4h-4zM164 304h4v4h-4zM168 304h4v4h-4zM172 304h4v4h-4zM176 304h4v4h-4zM180 304h4v4h-4zM184 304h4v4h-4zM188 304h4v4h-4zM192 304h4v4h-4zM196 304h4v4h-4zM200 304h4v4h-4zM204 304h4v4h-4zM208 304h4v4h-4z"/><path fill="#418EAA" d="M212 304h4v4h-4z"/><path fill="#2C3E49" d="M216 304h4v4h-4zM248 304h4v4h-4z"/><path fill="#294A65" d="M252 304h4v4h-4zM256 304h4v4h-4z"/><path fill="#427384" d="M260 304h4v4h-4zM264 304h4v4h-4zM268 304h4v4h-4zM272 304h4v4h-4zM276 304h4v4h-4zM280 304h4v4h-4zM284 304h4v4h-4zM288 304h4v4h-4zM292 304h4v4h-4zM296 304h4v4h-4z"/><path fill="#2C3E49" d="M300 304h4v4h-4zM152 308h4v4h-4z"/><path fill="#294A65" d="M156 308h4v4h-4zM160 308h4v4h-4z"/><path fill="#427384" d="M164 308h4v4h-4zM168 308h4v4h-4zM172 308h4v4h-4zM176 308h4v4h-4zM180 308h4v4h-4zM184 308h4v4h-4zM188 308h4v4h-4zM192 308h4v4h-4zM196 308h4v4h-4zM200 308h4v4h-4zM204 308h4v4h-4zM208 308h4v4h-4z"/><path fill="#418EAA" d="M212 308h4v4h-4z"/><path fill="#2C3E49" d="M216 308h4v4h-4zM252 308h4v4h-4z"/><path fill="#294A65" d="M256 308h4v4h-4z"/><path fill="#427384" d="M260 308h4v4h-4zM264 308h4v4h-4zM268 308h4v4h-4zM272 308h4v4h-4z"/><path fill="#418EAA" d="M276 308h4v4h-4zM280 308h4v4h-4zM284 308h4v4h-4zM288 308h4v4h-4z"/><path fill="#427384" d="M292 308h4v4h-4zM296 308h4v4h-4z"/><path fill="#2C3E49" d="M300 308h4v4h-4zM156 312h4v4h-4z"/><path fill="#294A65" d="M160 312h4v4h-4zM164 312h4v4h-4zM168 312h4v4h-4z"/><path fill="#427384" d="M172 312h4v4h-4zM176 312h4v4h-4zM180 312h4v4h-4zM184 312h4v4h-4zM188 312h4v4h-4zM192 312h4v4h-4zM196 312h4v4h-4z"/><path fill="#418EAA" d="M200 312h4v4h-4z"/><path fill="#427384" d="M204 312h4v4h-4zM208 312h4v4h-4z"/><path fill="#FF2E88" d="M212 312h4v4h-4zM216 312h4v4h-4z"/><path fill="#2C3E49" d="M220 312h4v4h-4zM252 312h4v4h-4z"/><path fill="#294A65" d="M256 312h4v4h-4zM260 312h4v4h-4z"/><path fill="#427384" d="M264 312h4v4h-4zM268 312h4v4h-4z"/><path fill="#418EAA" d="M272 312h4v4h-4z"/><path fill="#427384" d="M276 312h4v4h-4zM280 312h4v4h-4zM284 312h4v4h-4zM288 312h4v4h-4z"/><path fill="#418EAA" d="M292 312h4v4h-4z"/><path fill="#427384" d="M296 312h4v4h-4z"/><path fill="#2C3E49" d="M300 312h4v4h-4zM160 316h4v4h-4zM164 316h4v4h-4z"/><path fill="#294A65" d="M168 316h4v4h-4zM172 316h4v4h-4z"/><path fill="#427384" d="M176 316h4v4h-4zM180 316h4v4h-4zM184 316h4v4h-4z"/><path fill="#418EAA" d="M188 316h4v4h-4zM192 316h4v4h-4zM196 316h4v4h-4z"/><path fill="#427384" d="M200 316h4v4h-4z"/><path fill="#FF2E88" d="M204 316h4v4h-4zM208 316h4v4h-4zM212 316h4v4h-4zM216 316h4v4h-4z"/><path fill="#2C3E49" d="M220 316h4v4h-4zM256 316h4v4h-4z"/><path fill="#294A65" d="M260 316h4v4h-4z"/><path fill="#418EAA" d="M264 316h4v4h-4zM268 316h4v4h-4z"/><path fill="#427384" d="M272 316h4v4h-4z"/><path fill="#FF2E88" d="M276 316h4v4h-4zM280 316h4v4h-4zM284 316h4v4h-4zM288 316h4v4h-4z"/><path fill="#427384" d="M292 316h4v4h-4z"/><path fill="#2C3E49" d="M296 316h4v4h-4zM168 320h4v4h-4z"/><path fill="#294A65" d="M172 320h4v4h-4zM176 320h4v4h-4z"/><path fill="#418EAA" d="M180 320h4v4h-4zM184 320h4v4h-4z"/><path fill="#427384" d="M188 320h4v4h-4zM192 320h4v4h-4zM196 320h4v4h-4z"/><path fill="#FF2E88" d="M200 320h4v4h-4zM204 320h4v4h-4zM208 320h4v4h-4zM212 320h4v4h-4z"/><path fill="#418EAA" d="M216 320h4v4h-4z"/><path fill="#2C3E49" d="M220 320h4v4h-4zM260 320h4v4h-4z"/><path fill="#294A65" d="M264 320h4v4h-4zM268 320h4v4h-4z"/><path fill="#FF2E88" d="M272 320h4v4h-4zM276 320h4v4h-4zM280 320h4v4h-4zM284 320h4v4h-4zM288 320h4v4h-4zM292 320h4v4h-4z"/><path fill="#2C3E49" d="M296 320h4v4h-4zM172 324h4v4h-4z"/><path fill="#294A65" d="M176 324h4v4h-4zM180 324h4v4h-4zM184 324h4v4h-4z"/><path fill="#FF2E88" d="M188 324h4v4h-4zM192 324h4v4h-4zM196 324h4v4h-4zM200 324h4v4h-4zM204 324h4v4h-4z"/><path fill="#427384" d="M208 324h4v4h-4zM212 324h4v4h-4z"/><path fill="#2C3E49" d="M216 324h4v4h-4zM264 324h4v4h-4zM268 324h4v4h-4z"/><path fill="#427384" d="M272 324h4v4h-4zM276 324h4v4h-4zM280 324h4v4h-4zM284 324h4v4h-4zM288 324h4v4h-4z"/><path fill="#2C3E49" d="M292 324h4v4h-4zM176 328h4v4h-4zM180 328h4v4h-4zM184 328h4v4h-4z"/><path fill="#FF2E88" d="M188 328h4v4h-4zM192 328h4v4h-4zM196 328h4v4h-4zM200 328h4v4h-4z"/><path fill="#427384" d="M204 328h4v4h-4z"/><path fill="#2C3E49" d="M208 328h4v4h-4zM212 328h4v4h-4zM272 328h4v4h-4zM276 328h4v4h-4zM280 328h4v4h-4zM284 328h4v4h-4zM288 328h4v4h-4zM180 332h4v4h-4zM184 332h4v4h-4zM188 332h4v4h-4zM192 332h4v4h-4zM196 332h4v4h-4zM200 332h4v4h-4zM204 332h4v4h-4z"/></svg>