<svg width="384" height="384" xmlns="http://www.w3.org/2000/svg" shape-rendering="crispEdges"><path fill="#33ADF7" d="M152 200h4v4h-4zM156 200h4v4h-4zM160 200h4v4h-4zM164 200h4v4h-4z"/><path fill="#A7DEFF" d="M168 200h4v4h-4zM172 200h4v4h-4zM176 200h4v4h-4z"/><path fill="#33ADF7" d="M144 204h4v4h-4zM148 204h4v4h-4z"/><path fill="#2996D6" d="M152 204h4v4h-4zM156 204h4v4h-4zM160 204h4v4h-4z"/><path fill="#5ECDFC" d="M164 204h4v4h-4zM168 204h4v4h-4z"/><path fill="#00ACFC" d="M172 204h4v4h-4zM176 204h4v4h-4z"/><path fill="#E8FFF9" d="M180 204h4v4h-4z"/><path fill="#A7DEFF" d="M184 204h4v4h-4z"/><path fill="#33ADF7" d="M280 204h4v4h-4zM284 204h4v4h-4zM288 204h4v4h-4zM292 204h4v4h-4zM296 204h4v4h-4zM300 204h4v4h-4z"/><path fill="#A7DEFF" d="M304 204h4v4h-4zM308 204h4v4h-4z"/><path fill="#33ADF7" d="M136 208h4v4h-4zM140 208h4v4h-4z"/><path fill="#2795D5" d="M144 208h4v4h-4zM148 208h4v4h-4zM152 208h4v4h-4zM156 208h4v4h-4zM160 208h4v4h-4z"/><path fill="#5ACCFC" d="M164 208h4v4h-4zM168 208h4v4h-4zM172 208h4v4h-4zM176 208h4v4h-4zM180 208h4v4h-4z"/><path fill="#007BC5" d="M184 208h4v4h-4z"/><path fill="#A7DEFF" d="M188 208h4v4h-4z"/><path fill="#33ADF7" d="M272 208h4v4h-4zM276 208h4v4h-4z"/><path fill="#2996D6" d="M280 208h4v4h-4z"/><path fill="#5ACCFC" d="M284 208h4v4h-4z"/><path fill="#2996D6" d="M288 208h4v4h-4z"/><path fill="#2694D4" d="M292 208h4v4h-4z"/><path fill="#007BC5" d="M296 208h4v4h-4zM300 208h4v4h-4zM304 208h4v4h-4z"/><path fill="#2795D5" d="M308 208h4v4h-4z"/><path fill="#A7DEFF" d="M312 208h4v4h-4z"/><path fill="#E8FFF9" d="M316 208h4v4h-4z"/><path fill="#33ADF7" d="M132 212h4v4h-4z"/><path fill="#2795D5" d="M136 212h4v4h-4z"/><path fill="#007BC5" d="M140 212h4v4h-4z"/><path fill="#2795D5" d="M144 212h4v4h-4zM148 212h4v4h-4zM152 212h4v4h-4zM156 212h4v4h-4z"/><path fill="#007BC5" d="M160 212h4v4h-4zM164 212h4v4h-4z"/><path fill="#2795D5" d="M168 212h4v4h-4zM172 212h4v4h-4z"/><path fill="#5ACCFC" d="M176 212h4v4h-4z"/><path fill="#E8FFF9" d="M180 212h4v4h-4z"/><path fill="#00ACFC" d="M184 212h4v4h-4z"/><path fill="#33ADF7" d="M188 212h4v4h-4zM268 212h4v4h-4z"/><path fill="#2996D6" d="M272 212h4v4h-4z"/><path fill="#2694D4" d="M276 212h4v4h-4z"/><path fill="#2996D6" d="M280 212h4v4h-4z"/><path fill="#5ACCFC" d="M284 212h4v4h-4z"/><path fill="#2795D5" d="M288 212h4v4h-4z"/><path fill="#2996D6" d="M292 212h4v4h-4z"/><path fill="#2694D4" d="M296 212h4v4h-4z"/><path fill="#007BC5" d="M300 212h4v4h-4zM304 212h4v4h-4zM308 212h4v4h-4z"/><path fill="#5ECDFC" d="M312 212h4v4h-4zM316 212h4v4h-4z"/><path fill="#A7DEFF" d="M320 212h4v4h-4z"/><path fill="#33ADF7" d="M128 216h4v4h-4z"/><path fill="#2996D6" d="M132 216h4v4h-4z"/><path fill="#007BC5" d="M136 216h4v4h-4zM140 216h4v4h-4z"/><path fill="#5ACCFC" d="M144 216h4v4h-4zM148 216h4v4h-4z"/><path fill="#2795D5" d="M152 216h4v4h-4zM156 216h4v4h-4z"/><path fill="#007BC5" d="M160 216h4v4h-4zM164 216h4v4h-4z"/><path fill="#2795D5" d="M168 216h4v4h-4zM172 216h4v4h-4z"/><path fill="#E8FFF9" d="M176 216h4v4h-4zM180 216h4v4h-4z"/><path fill="#00ACFC" d="M184 216h4v4h-4z"/><path fill="#33ADF7" d="M188 216h4v4h-4zM264 216h4v4h-4z"/><path fill="#2694D4" d="M268 216h4v4h-4zM272 216h4v4h-4zM276 216h4v4h-4z"/><path fill="#5ACCFC" d="M280 216h4v4h-4zM284 216h4v4h-4z"/><path fill="#2795D5" d="M288 216h4v4h-4z"/><path fill="#2694D4" d="M292 216h4v4h-4zM296 216h4v4h-4zM300 216h4v4h-4z"/><path fill="#2996D6" d="M304 216h4v4h-4zM308 216h4v4h-4z"/><path fill="#E8FFF9" d="M312 216h4v4h-4z"/><path fill="#5ECDFC" d="M316 216h4v4h-4z"/><path fill="#33ADF7" d="M320 216h4v4h-4zM128 220h4v4h-4z"/><path fill="#2996D6" d="M132 220h4v4h-4z"/><path fill="#007BC5" d="M136 220h4v4h-4zM140 220h4v4h-4z"/><path fill="#00ACFC" d="M144 220h4v4h-4z"/><path fill="#5ACCFC" d="M148 220h4v4h-4z"/><path fill="#2795D5" d="M152 220h4v4h-4zM156 220h4v4h-4z"/><path fill="#007BC5" d="M160 220h4v4h-4zM164 220h4v4h-4zM168 220h4v4h-4z"/><path fill="#2795D5" d="M172 220h4v4h-4z"/><path fill="#E8FFF9" d="M176 220h4v4h-4zM180 220h4v4h-4z"/><path fill="#00ACFC" d="M184 220h4v4h-4z"/><path fill="#2996D6" d="M188 220h4v4h-4z"/><path fill="#33ADF7" d="M264 220h4v4h-4z"/><path fill="#2694D4" d="M268 220h4v4h-4z"/><path fill="#007BC5" d="M272 220h4v4h-4zM276 220h4v4h-4z"/><path fill="#A7DEFF" d="M280 220h4v4h-4z"/><path fill="#5ACCFC" d="M284 220h4v4h-4z"/><path fill="#007BC5" d="M288 220h4v4h-4z"/><path fill="#2694D4" d="M292 220h4v4h-4zM296 220h4v4h-4zM300 220h4v4h-4zM304 220h4v4h-4z"/><path fill="#E8FFF9" d="M308 220h4v4h-4zM312 220h4v4h-4z"/><path fill="#5ECDFC" d="M316 220h4v4h-4z"/><path fill="#33ADF7" d="M320 220h4v4h-4zM128 224h4v4h-4z"/><path fill="#2996D6" d="M132 224h4v4h-4z"/><path fill="#2795D5" d="M136 224h4v4h-4z"/><path fill="#007BC5" d="M140 224h4v4h-4z"/><path fill="#00ACFC" d="M144 224h4v4h-4z"/><path fill="#5ACCFC" d="M148 224h4v4h-4z"/><path fill="#2795D5" d="M152 224h4v4h-4zM156 224h4v4h-4z"/><path fill="#007BC5" d="M160 224h4v4h-4zM164 224h4v4h-4zM168 224h4v4h-4z"/><path fill="#2795D5" d="M172 224h4v4h-4z"/><path fill="#E8FFF9" d="M176 224h4v4h-4zM180 224h4v4h-4z"/><path fill="#00ACFC" d="M184 224h4v4h-4z"/><path fill="#2996D6" d="M188 224h4v4h-4z"/><path fill="#33ADF7" d="M264 224h4v4h-4z"/><path fill="#007BC5" d="M268 224h4v4h-4zM272 224h4v4h-4zM276 224h4v4h-4z"/><path fill="#A7DEFF" d="M280 224h4v4h-4z"/><path fill="#5ACCFC" d="M284 224h4v4h-4z"/><path fill="#007BC5" d="M288 224h4v4h-4z"/><path fill="#2694D4" d="M292 224h4v4h-4zM296 224h4v4h-4zM300 224h4v4h-4z"/><path fill="#33ADF7" d="M304 224h4v4h-4z"/><path fill="#E8FFF9" d="M308 224h4v4h-4zM312 224h4v4h-4z"/><path fill="#5ECDFC" d="M316 224h4v4h-4z"/><path fill="#33ADF7" d="M320 224h4v4h-4z"/><path fill="#A7DEFF" d="M128 228h4v4h-4z"/><path fill="#33ADF7" d="M132 228h4v4h-4z"/><path fill="#2795D5" d="M136 228h4v4h-4z"/><path fill="#33ADF7" d="M140 228h4v4h-4z"/><path fill="#007BC5" d="M144 228h4v4h-4z"/><path fill="#2795D5" d="M148 228h4v4h-4zM152 228h4v4h-4zM156 228h4v4h-4z"/><path fill="#007BC5" d="M160 228h4v4h-4z"/><path fill="#5ACCFC" d="M164 228h4v4h-4z"/><path fill="#007BC5" d="M168 228h4v4h-4z"/><path fill="#2795D5" d="M172 228h4v4h-4z"/><path fill="#E8FFF9" d="M176 228h4v4h-4z"/><path fill="#00ACFC" d="M180 228h4v4h-4zM184 228h4v4h-4z"/><path fill="#2996D6" d="M188 228h4v4h-4z"/><path fill="#33ADF7" d="M264 228h4v4h-4zM268 228h4v4h-4z"/><path fill="#007BC5" d="M272 228h4v4h-4zM276 228h4v4h-4z"/><path fill="#2996D6" d="M280 228h4v4h-4z"/><path fill="#007BC5" d="M284 228h4v4h-4zM288 228h4v4h-4zM292 228h4v4h-4z"/><path fill="#2694D4" d="M296 228h4v4h-4zM300 228h4v4h-4z"/><path fill="#33ADF7" d="M304 228h4v4h-4z"/><path fill="#E8FFF9" d="M308 228h4v4h-4zM312 228h4v4h-4z"/><path fill="#5ECDFC" d="M316 228h4v4h-4z"/><path fill="#33ADF7" d="M320 228h4v4h-4z"/><path fill="#A7DEFF" d="M132 232h4v4h-4z"/><path fill="#2996D6" d="M136 232h4v4h-4z"/><path fill="#33ADF7" d="M140 232h4v4h-4z"/><path fill="#007BC5" d="M144 232h4v4h-4zM148 232h4v4h-4z"/><path fill="#2795D5" d="M152 232h4v4h-4zM156 232h4v4h-4z"/><path fill="#007BC5" d="M160 232h4v4h-4z"/><path fill="#5ACCFC" d="M164 232h4v4h-4z"/><path fill="#007BC5" d="M168 232h4v4h-4z"/><path fill="#2795D5" d="M172 232h4v4h-4z"/><path fill="#E8FFF9" d="M176 232h4v4h-4z"/><path fill="#00ACFC" d="M180 232h4v4h-4zM184 232h4v4h-4z"/><path fill="#2996D6" d="M188 232h4v4h-4z"/><path fill="#007BC5" d="M192 232h4v4h-4z"/><path fill="#33ADF7" d="M264 232h4v4h-4zM268 232h4v4h-4z"/><path fill="#007BC5" d="M272 232h4v4h-4z"/><path fill="#2694D4" d="M276 232h4v4h-4zM280 232h4v4h-4z"/><path fill="#007BC5" d="M284 232h4v4h-4zM288 232h4v4h-4zM292 232h4v4h-4z"/><path fill="#2694D4" d="M296 232h4v4h-4zM300 232h4v4h-4z"/><path fill="#33ADF7" d="M304 232h4v4h-4z"/><path fill="#E8FFF9" d="M308 232h4v4h-4z"/><path fill="#5ECDFC" d="M312 232h4v4h-4zM316 232h4v4h-4z"/><path fill="#33ADF7" d="M320 232h4v4h-4z"/><path fill="#A7DEFF" d="M132 236h4v4h-4z"/><path fill="#2996D6" d="M136 236h4v4h-4zM140 236h4v4h-4z"/><path fill="#33ADF7" d="M144 236h4v4h-4z"/><path fill="#007BC5" d="M148 236h4v4h-4z"/><path fill="#2795D5" d="M152 236h4v4h-4zM156 236h4v4h-4zM160 236h4v4h-4z"/><path fill="#5ACCFC" d="M164 236h4v4h-4z"/><path fill="#007BC5" d="M168 236h4v4h-4z"/><path fill="#2996D6" d="M172 236h4v4h-4z"/><path fill="#5ACCFC" d="M176 236h4v4h-4z"/><path fill="#00ACFC" d="M180 236h4v4h-4zM184 236h4v4h-4z"/><path fill="#2996D6" d="M188 236h4v4h-4z"/><path fill="#007BC5" d="M192 236h4v4h-4z"/><path fill="#0F679A" d="M252 236h4v4h-4z"/><path fill="#007BC5" d="M256 236h4v4h-4z"/><path fill="#33ADF7" d="M264 236h4v4h-4z"/><path fill="#2996D6" d="M268 236h4v4h-4z"/><path fill="#33ADF7" d="M272 236h4v4h-4z"/><path fill="#2694D4" d="M276 236h4v4h-4zM280 236h4v4h-4z"/><path fill="#007BC5" d="M284 236h4v4h-4zM288 236h4v4h-4zM292 236h4v4h-4z"/><path fill="#2694D4" d="M296 236h4v4h-4zM300 236h4v4h-4z"/><path fill="#33ADF7" d="M304 236h4v4h-4z"/><path fill="#00ACFC" d="M308 236h4v4h-4z"/><path fill="#5ECDFC" d="M312 236h4v4h-4zM316 236h4v4h-4z"/><path fill="#A7DEFF" d="M136 240h4v4h-4z"/><path fill="#2996D6" d="M140 240h4v4h-4z"/><path fill="#33ADF7" d="M144 240h4v4h-4z"/><path fill="#007BC5" d="M148 240h4v4h-4z"/><path fill="#2795D5" d="M152 240h4v4h-4zM156 240h4v4h-4zM160 240h4v4h-4z"/><path fill="#007BC5" d="M164 240h4v4h-4zM168 240h4v4h-4z"/><path fill="#2795D5" d="M172 240h4v4h-4z"/><path fill="#5ACCFC" d="M176 240h4v4h-4z"/><path fill="#00ACFC" d="M180 240h4v4h-4z"/><path fill="#5ECDFC" d="M184 240h4v4h-4z"/><path fill="#0F679A" d="M188 240h4v4h-4z"/><path fill="#007BC5" d="M192 240h4v4h-4z"/><path fill="#0F679A" d="M252 240h4v4h-4z"/><path fill="#007BC5" d="M256 240h4v4h-4zM260 240h4v4h-4z"/><path fill="#33ADF7" d="M264 240h4v4h-4z"/><path fill="#2996D6" d="M268 240h4v4h-4z"/><path fill="#33ADF7" d="M272 240h4v4h-4z"/><path fill="#A7DEFF" d="M276 240h4v4h-4z"/><path fill="#2694D4" d="M280 240h4v4h-4z"/><path fill="#007BC5" d="M284 240h4v4h-4zM288 240h4v4h-4zM292 240h4v4h-4z"/><path fill="#2694D4" d="M296 240h4v4h-4z"/><path fill="#33ADF7" d="M300 240h4v4h-4z"/><path fill="#00ACFC" d="M304 240h4v4h-4z"/><path fill="#5ECDFC" d="M308 240h4v4h-4zM312 240h4v4h-4z"/><path fill="#33ADF7" d="M316 240h4v4h-4z"/><path fill="#E8FFF9" d="M136 244h4v4h-4z"/><path fill="#2996D6" d="M140 244h4v4h-4zM144 244h4v4h-4z"/><path fill="#33ADF7" d="M148 244h4v4h-4z"/><path fill="#5ACCFC" d="M152 244h4v4h-4z"/><path fill="#2795D5" d="M156 244h4v4h-4zM160 244h4v4h-4z"/><path fill="#007BC5" d="M164 244h4v4h-4zM168 244h4v4h-4zM172 244h4v4h-4z"/><path fill="#33ADF7" d="M176 244h4v4h-4z"/><path fill="#00ACFC" d="M180 244h4v4h-4z"/><path fill="#5ECDFC" d="M184 244h4v4h-4z"/><path fill="#0F679A" d="M188 244h4v4h-4z"/><path fill="#007BC5" d="M192 244h4v4h-4z"/><path fill="#0F679A" d="M252 244h4v4h-4zM256 244h4v4h-4z"/><path fill="#007BC5" d="M260 244h4v4h-4z"/><path fill="#0F679A" d="M264 244h4v4h-4z"/><path fill="#33ADF7" d="M268 244h4v4h-4zM272 244h4v4h-4z"/><path fill="#A7DEFF" d="M276 244h4v4h-4z"/><path fill="#2694D4" d="M280 244h4v4h-4z"/><path fill="#007BC5" d="M284 244h4v4h-4zM288 244h4v4h-4zM292 244h4v4h-4z"/><path fill="#2694D4" d="M296 244h4v4h-4z"/><path fill="#33ADF7" d="M300 244h4v4h-4z"/><path fill="#00ACFC" d="M304 244h4v4h-4z"/><path fill="#5ECDFC" d="M308 244h4v4h-4zM312 244h4v4h-4z"/><path fill="#E8FFF9" d="M140 248h4v4h-4z"/><path fill="#2996D6" d="M144 248h4v4h-4z"/><path fill="#33ADF7" d="M148 248h4v4h-4z"/><path fill="#5ACCFC" d="M152 248h4v4h-4z"/><path fill="#2795D5" d="M156 248h4v4h-4zM160 248h4v4h-4z"/><path fill="#007BC5" d="M164 248h4v4h-4zM168 248h4v4h-4zM172 248h4v4h-4z"/><path fill="#33ADF7" d="M176 248h4v4h-4z"/><path fill="#00ACFC" d="M180 248h4v4h-4z"/><path fill="#5ECDFC" d="M184 248h4v4h-4z"/><path fill="#0F679A" d="M188 248h4v4h-4z"/><path fill="#007BC5" d="M192 248h4v4h-4z"/><path fill="#0F679A" d="M196 248h4v4h-4zM252 248h4v4h-4zM256 248h4v4h-4z"/><path fill="#007BC5" d="M260 248h4v4h-4z"/><path fill="#0F679A" d="M264 248h4v4h-4z"/><path fill="#33ADF7" d="M268 248h4v4h-4zM272 248h4v4h-4z"/><path fill="#A7DEFF" d="M276 248h4v4h-4z"/><path fill="#2694D4" d="M280 248h4v4h-4z"/><path fill="#33ADF7" d="M284 248h4v4h-4z"/><path fill="#007BC5" d="M288 248h4v4h-4zM292 248h4v4h-4z"/><path fill="#2694D4" d="M296 248h4v4h-4z"/><path fill="#33ADF7" d="M300 248h4v4h-4z"/><path fill="#00ACFC" d="M304 248h4v4h-4z"/><path fill="#5ECDFC" d="M308 248h4v4h-4zM312 248h4v4h-4z"/><path fill="#E8FFF9" d="M140 252h4v4h-4z"/><path fill="#2996D6" d="M144 252h4v4h-4zM148 252h4v4h-4z"/><path fill="#5ACCFC" d="M152 252h4v4h-4z"/><path fill="#2795D5" d="M156 252h4v4h-4zM160 252h4v4h-4zM164 252h4v4h-4z"/><path fill="#007BC5" d="M168 252h4v4h-4zM172 252h4v4h-4z"/><path fill="#33ADF7" d="M176 252h4v4h-4z"/><path fill="#00ACFC" d="M180 252h4v4h-4z"/><path fill="#5ECDFC" d="M184 252h4v4h-4z"/><path fill="#0F679A" d="M188 252h4v4h-4zM192 252h4v4h-4zM196 252h4v4h-4zM252 252h4v4h-4zM256 252h4v4h-4zM260 252h4v4h-4zM264 252h4v4h-4z"/><path fill="#33ADF7" d="M268 252h4v4h-4z"/><path fill="#2996D6" d="M272 252h4v4h-4z"/><path fill="#33ADF7" d="M276 252h4v4h-4z"/><path fill="#2694D4" d="M280 252h4v4h-4z"/><path fill="#33ADF7" d="M284 252h4v4h-4z"/><path fill="#007BC5" d="M288 252h4v4h-4zM292 252h4v4h-4z"/><path fill="#2694D4" d="M296 252h4v4h-4z"/><path fill="#33ADF7" d="M300 252h4v4h-4z"/><path fill="#00ACFC" d="M304 252h4v4h-4z"/><path fill="#5ECDFC" d="M308 252h4v4h-4z"/><path fill="#33ADF7" d="M312 252h4v4h-4z"/><path fill="#A7DEFF" d="M144 256h4v4h-4z"/><path fill="#2996D6" d="M148 256h4v4h-4z"/><path fill="#33ADF7" d="M152 256h4v4h-4zM156 256h4v4h-4z"/><path fill="#2795D5" d="M160 256h4v4h-4zM164 256h4v4h-4z"/><path fill="#007BC5" d="M168 256h4v4h-4zM172 256h4v4h-4z"/><path fill="#33ADF7" d="M176 256h4v4h-4z"/><path fill="#00ACFC" d="M180 256h4v4h-4z"/><path fill="#5ECDFC" d="M184 256h4v4h-4z"/><path fill="#0F679A" d="M188 256h4v4h-4zM192 256h4v4h-4zM260 256h4v4h-4zM264 256h4v4h-4z"/><path fill="#33ADF7" d="M268 256h4v4h-4z"/><path fill="#2996D6" d="M272 256h4v4h-4z"/><path fill="#33ADF7" d="M276 256h4v4h-4z"/><path fill="#2694D4" d="M280 256h4v4h-4z"/><path fill="#33ADF7" d="M284 256h4v4h-4z"/><path fill="#007BC5" d="M288 256h4v4h-4zM292 256h4v4h-4z"/><path fill="#33ADF7" d="M296 256h4v4h-4z"/><path fill="#00ACFC" d="M300 256h4v4h-4z"/><path fill="#A7DEFF" d="M304 256h4v4h-4z"/><path fill="#5ECDFC" d="M308 256h4v4h-4z"/><path fill="#A7DEFF" d="M144 260h4v4h-4z"/><path fill="#2996D6" d="M148 260h4v4h-4zM152 260h4v4h-4z"/><path fill="#33ADF7" d="M156 260h4v4h-4z"/><path fill="#2795D5" d="M160 260h4v4h-4zM164 260h4v4h-4z"/><path fill="#007BC5" d="M168 260h4v4h-4zM172 260h4v4h-4z"/><path fill="#00ACFC" d="M176 260h4v4h-4zM180 260h4v4h-4z"/><path fill="#5ECDFC" d="M184 260h4v4h-4z"/><path fill="#0F679A" d="M188 260h4v4h-4zM192 260h4v4h-4zM264 260h4v4h-4z"/><path fill="#33ADF7" d="M272 260h4v4h-4zM276 260h4v4h-4z"/><path fill="#2694D4" d="M280 260h4v4h-4z"/><path fill="#33ADF7" d="M284 260h4v4h-4z"/><path fill="#007BC5" d="M288 260h4v4h-4zM292 260h4v4h-4z"/><path fill="#33ADF7" d="M296 260h4v4h-4z"/><path fill="#00ACFC" d="M300 260h4v4h-4z"/><path fill="#A7DEFF" d="M304 260h4v4h-4z"/><path fill="#5ECDFC" d="M308 260h4v4h-4z"/><path fill="#A7DEFF" d="M148 264h4v4h-4z"/><path fill="#5ECDFC" d="M152 264h4v4h-4z"/><path fill="#33ADF7" d="M156 264h4v4h-4zM160 264h4v4h-4z"/><path fill="#2795D5" d="M164 264h4v4h-4z"/><path fill="#007BC5" d="M168 264h4v4h-4zM172 264h4v4h-4z"/><path fill="#00ACFC" d="M176 264h4v4h-4zM180 264h4v4h-4z"/><path fill="#5ECDFC" d="M184 264h4v4h-4z"/><path fill="#33ADF7" d="M272 264h4v4h-4z"/><path fill="#5ECDFC" d="M276 264h4v4h-4zM280 264h4v4h-4z"/><path fill="#33ADF7" d="M284 264h4v4h-4z"/><path fill="#007BC5" d="M288 264h4v4h-4z"/><path fill="#2694D4" d="M292 264h4v4h-4z"/><path fill="#33ADF7" d="M296 264h4v4h-4z"/><path fill="#00ACFC" d="M300 264h4v4h-4z"/><path fill="#A7DEFF" d="M304 264h4v4h-4zM148 268h4v4h-4z"/><path fill="#5ECDFC" d="M152 268h4v4h-4zM156 268h4v4h-4z"/><path fill="#33ADF7" d="M160 268h4v4h-4z"/><path fill="#2795D5" d="M164 268h4v4h-4zM168 268h4v4h-4z"/><path fill="#007BC5" d="M172 268h4v4h-4z"/><path fill="#00ACFC" d="M176 268h4v4h-4zM180 268h4v4h-4z"/><path fill="#5ECDFC" d="M184 268h4v4h-4z"/><path fill="#33ADF7" d="M272 268h4v4h-4z"/><path fill="#5ECDFC" d="M276 268h4v4h-4zM280 268h4v4h-4z"/><path fill="#33ADF7" d="M284 268h4v4h-4z"/><path fill="#007BC5" d="M288 268h4v4h-4z"/><path fill="#2694D4" d="M292 268h4v4h-4z"/><path fill="#00ACFC" d="M296 268h4v4h-4z"/><path fill="#A7DEFF" d="M300 268h4v4h-4z"/><path fill="#5ECDFC" d="M304 268h4v4h-4z"/><path fill="#A7DEFF" d="M152 272h4v4h-4z"/><path fill="#5ECDFC" d="M156 272h4v4h-4z"/><path fill="#33ADF7" d="M160 272h4v4h-4z"/><path fill="#2795D5" d="M164 272h4v4h-4zM168 272h4v4h-4z"/><path fill="#007BC5" d="M172 272h4v4h-4z"/><path fill="#00ACFC" d="M176 272h4v4h-4zM180 272h4v4h-4z"/><path fill="#2996D6" d="M184 272h4v4h-4z"/><path fill="#33ADF7" d="M272 272h4v4h-4z"/><path fill="#5ECDFC" d="M276 272h4v4h-4zM280 272h4v4h-4z"/><path fill="#33ADF7" d="M284 272h4v4h-4z"/><path fill="#007BC5" d="M288 272h4v4h-4z"/><path fill="#2694D4" d="M292 272h4v4h-4z"/><path fill="#00ACFC" d="M296 272h4v4h-4z"/><path fill="#A7DEFF" d="M300 272h4v4h-4z"/><path fill="#33ADF7" d="M304 272h4v4h-4z"/><path fill="#A7DEFF" d="M152 276h4v4h-4z"/><path fill="#5ECDFC" d="M156 276h4v4h-4zM160 276h4v4h-4z"/><path fill="#33ADF7" d="M164 276h4v4h-4z"/><path fill="#2795D5" d="M168 276h4v4h-4z"/><path fill="#007BC5" d="M172 276h4v4h-4z"/><path fill="#00ACFC" d="M176 276h4v4h-4zM180 276h4v4h-4z"/><path fill="#2996D6" d="M184 276h4v4h-4z"/><path fill="#33ADF7" d="M276 276h4v4h-4z"/><path fill="#5ECDFC" d="M280 276h4v4h-4z"/><path fill="#33ADF7" d="M284 276h4v4h-4z"/><path fill="#007BC5" d="M288 276h4v4h-4z"/><path fill="#33ADF7" d="M292 276h4v4h-4z"/><path fill="#00ACFC" d="M296 276h4v4h-4z"/><path fill="#A7DEFF" d="M300 276h4v4h-4zM156 280h4v4h-4z"/><path fill="#5ECDFC" d="M160 280h4v4h-4z"/><path fill="#33ADF7" d="M164 280h4v4h-4z"/><path fill="#2795D5" d="M168 280h4v4h-4z"/><path fill="#007BC5" d="M172 280h4v4h-4z"/><path fill="#00ACFC" d="M176 280h4v4h-4zM180 280h4v4h-4z"/><path fill="#2996D6" d="M184 280h4v4h-4z"/><path fill="#33ADF7" d="M276 280h4v4h-4z"/><path fill="#5ECDFC" d="M280 280h4v4h-4z"/><path fill="#33ADF7" d="M284 280h4v4h-4z"/><path fill="#007BC5" d="M288 280h4v4h-4z"/><path fill="#33ADF7" d="M292 280h4v4h-4z"/><path fill="#A7DEFF" d="M296 280h4v4h-4z"/><path fill="#5ECDFC" d="M300 280h4v4h-4z"/><path fill="#A7DEFF" d="M156 284h4v4h-4z"/><path fill="#5ECDFC" d="M160 284h4v4h-4zM164 284h4v4h-4z"/><path fill="#33ADF7" d="M168 284h4v4h-4zM172 284h4v4h-4z"/><path fill="#00ACFC" d="M176 284h4v4h-4zM180 284h4v4h-4z"/><path fill="#2996D6" d="M184 284h4v4h-4z"/><path fill="#33ADF7" d="M276 284h4v4h-4z"/><path fill="#5ECDFC" d="M280 284h4v4h-4z"/><path fill="#33ADF7" d="M284 284h4v4h-4z"/><path fill="#007BC5" d="M288 284h4v4h-4z"/><path fill="#33ADF7" d="M292 284h4v4h-4z"/><path fill="#A7DEFF" d="M296 284h4v4h-4z"/><path fill="#33ADF7" d="M300 284h4v4h-4z"/><path fill="#E8FFF9" d="M160 288h4v4h-4z"/><path fill="#5ECDFC" d="M164 288h4v4h-4z"/><path fill="#33ADF7" d="M168 288h4v4h-4zM172 288h4v4h-4z"/><path fill="#00ACFC" d="M176 288h4v4h-4zM180 288h4v4h-4z"/><path fill="#2996D6" d="M184 288h4v4h-4z"/><path fill="#33ADF7" d="M276 288h4v4h-4z"/><path fill="#5ECDFC" d="M280 288h4v4h-4z"/><path fill="#33ADF7" d="M284 288h4v4h-4z"/><path fill="#00ACFC" d="M288 288h4v4h-4z"/><path fill="#33ADF7" d="M292 288h4v4h-4z"/><path fill="#A7DEFF" d="M296 288h4v4h-4z"/><path fill="#E8FFF9" d="M160 292h4v4h-4z"/><path fill="#5ECDFC" d="M164 292h4v4h-4z"/><path fill="#33ADF7" d="M168 292h4v4h-4zM172 292h4v4h-4z"/><path fill="#5ECDFC" d="M176 292h4v4h-4z"/><path fill="#00ACFC" d="M180 292h4v4h-4z"/><path fill="#2996D6" d="M184 292h4v4h-4z"/><path fill="#33ADF7" d="M276 292h4v4h-4z"/><path fill="#5ECDFC" d="M280 292h4v4h-4z"/><path fill="#33ADF7" d="M284 292h4v4h-4zM288 292h4v4h-4z"/><path fill="#A7DEFF" d="M292 292h4v4h-4z"/><path fill="#33ADF7" d="M296 292h4v4h-4z"/><path fill="#E8FFF9" d="M164 296h4v4h-4z"/><path fill="#5ECDFC" d="M168 296h4v4h-4z"/><path fill="#33ADF7" d="M172 296h4v4h-4z"/><path fill="#5ECDFC" d="M176 296h4v4h-4z"/><path fill="#00ACFC" d="M180 296h4v4h-4z"/><path fill="#2996D6" d="M184 296h4v4h-4z"/><path fill="#33ADF7" d="M280 296h4v4h-4zM284 296h4v4h-4zM288 296h4v4h-4z"/><path fill="#A7DEFF" d="M292 296h4v4h-4z"/><path fill="#E8FFF9" d="M164 300h4v4h-4z"/><path fill="#5ECDFC" d="M168 300h4v4h-4z"/><path fill="#33ADF7" d="M172 300h4v4h-4z"/><path fill="#5ECDFC" d="M176 300h4v4h-4zM180 300h4v4h-4z"/><path fill="#2996D6" d="M184 300h4v4h-4z"/><path fill="#33ADF7" d="M280 300h4v4h-4z"/><path fill="#2694D4" d="M284 300h4v4h-4z"/><path fill="#33ADF7" d="M288 300h4v4h-4z"/><path fill="#5ECDFC" d="M292 300h4v4h-4z"/><path fill="#E8FFF9" d="M168 304h4v4h-4z"/><path fill="#5ECDFC" d="M172 304h4v4h-4z"/><path fill="#33ADF7" d="M176 304h4v4h-4z"/><path fill="#5ECDFC" d="M180 304h4v4h-4z"/><path fill="#33ADF7" d="M280 304h4v4h-4z"/><path fill="#58CBFC" d="M284 304h4v4h-4z"/><path fill="#33ADF7" d="M288 304h4v4h-4z"/><path fill="#5ECDFC" d="M292 304h4v4h-4z"/><path fill="#E8FFF9" d="M168 308h4v4h-4z"/><path fill="#5ECDFC" d="M172 308h4v4h-4z"/><path fill="#33ADF7" d="M176 308h4v4h-4z"/><path fill="#5ECDFC" d="M180 308h4v4h-4z"/><path fill="#33ADF7" d="M280 308h4v4h-4z"/><path fill="#5ECDFC" d="M284 308h4v4h-4zM288 308h4v4h-4z"/><path fill="#A7DEFF" d="M172 312h4v4h-4z"/><path fill="#5ECDFC" d="M176 312h4v4h-4zM180 312h4v4h-4z"/><path fill="#33ADF7" d="M284 312h4v4h-4zM288 312h4v4h-4z"/><path fill="#A7DEFF" d="M172 316h4v4h-4z"/><path fill="#5ECDFC" d="M176 316h4v4h-4z"/><path fill="#5ACCFC" d="M180 316h4v4h-4z"/><path fill="#33ADF7" d="M284 316h4v4h-4z"/><path fill="#A7DEFF" d="M176 320h4v4h-4z"/><path fill="#5ACCFC" d="M180 320h4v4h-4z"/><path fill="#33ADF7" d="M284 320h4v4h-4z"/><path fill="#A7DEFF" d="M176 324h4v4h-4z"/><path fill="#5ACCFC" d="M180 324h4v4h-4z"/><path fill="#A7DEFF" d="M180 328h4v4h-4zM180 332h4v4h-4z"/></svg>